<svg width="25" height="25" viewBox="0 0 25 25" fill="none" xmlns="http://www.w3.org/2000/svg">
<path fill-rule="evenodd" clip-rule="evenodd" d="M10.1716 21.5H14.6156C17.7366 21.5 19.2976 21.5 20.4186 20.765C20.9024 20.4481 21.319 20.039 21.6446 19.561C22.3936 18.461 22.3936 16.928 22.3936 13.864C22.3936 10.8 22.3936 9.267 21.6446 8.167C21.319 7.68899 20.9024 7.27986 20.4186 6.963C19.6986 6.49 18.7966 6.321 17.4156 6.261C16.7566 6.261 16.1896 5.771 16.0606 5.136C15.962 4.67087 15.7058 4.25404 15.3354 3.95595C14.965 3.65787 14.503 3.49681 14.0276 3.5H10.7596C9.77155 3.5 8.92056 4.185 8.72655 5.136C8.59755 5.771 8.03055 6.261 7.37155 6.261C5.99155 6.321 5.08955 6.491 4.36855 6.963C3.88509 7.27996 3.46883 7.68909 3.14355 8.167C2.39355 9.267 2.39355 10.799 2.39355 13.864C2.39355 16.929 2.39355 18.46 3.14255 19.561C3.46655 20.037 3.88255 20.446 4.36855 20.765C5.48955 21.5 7.05055 21.5 10.1716 21.5ZM12.3936 9.773C10.0926 9.773 8.22655 11.604 8.22655 13.863C8.22655 16.122 10.0936 17.956 12.3936 17.956C14.6936 17.956 16.5606 16.124 16.5606 13.865C16.5606 11.606 14.6936 9.773 12.3936 9.773ZM12.3936 11.409C11.0136 11.409 9.89355 12.508 9.89355 13.864C9.89355 15.219 11.0136 16.318 12.3936 16.318C13.7736 16.318 14.8936 15.219 14.8936 13.864C14.8936 12.509 13.7736 11.409 12.3936 11.409ZM17.1156 10.591C17.1156 10.139 17.4886 9.773 17.9496 9.773H19.0596C19.5196 9.773 19.8936 10.139 19.8936 10.591C19.8914 10.8099 19.8025 11.019 19.6463 11.1724C19.4901 11.3258 19.2795 11.4109 19.0606 11.409H17.9496C17.8411 11.4101 17.7335 11.3897 17.6328 11.3492C17.5322 11.3087 17.4406 11.2487 17.3631 11.1727C17.2857 11.0968 17.224 11.0063 17.1815 10.9065C17.139 10.8067 17.1166 10.6995 17.1156 10.591Z" fill="#20C997"/>
</svg>
