<svg width="40" height="40" viewBox="0 0 40 40" fill="none" xmlns="http://www.w3.org/2000/svg">
<path fill-rule="evenodd" clip-rule="evenodd" d="M12.1133 7.76334C17.3618 7.30755 22.6399 7.30755 27.8883 7.76334L30.405 7.98334C31.5748 8.08578 32.6762 8.57869 33.532 9.3828C34.3878 10.1869 34.9483 11.2555 35.1233 12.4167C35.8793 17.444 35.8793 22.556 35.1233 27.5833C35.0555 28.0244 34.9378 28.4433 34.77 28.84C34.66 29.1017 34.32 29.1417 34.1267 28.9317L26.7583 20.825C26.5954 20.6458 26.3839 20.5178 26.1495 20.4565C25.9152 20.3953 25.6681 20.4034 25.4383 20.48L21.22 21.8867L15.1017 15.0033C14.9885 14.876 14.8505 14.7731 14.6961 14.7011C14.5418 14.629 14.3743 14.5893 14.204 14.5843C14.0337 14.5793 13.8642 14.6092 13.7059 14.672C13.5476 14.7349 13.4038 14.8295 13.2833 14.95L5.09333 23.14C5.03769 23.1972 4.96657 23.2369 4.8887 23.2543C4.81082 23.2716 4.72957 23.2659 4.6549 23.2378C4.58024 23.2096 4.5154 23.1603 4.46835 23.0959C4.4213 23.0315 4.39406 22.9547 4.39 22.875C4.1929 19.3809 4.35598 15.8757 4.87666 12.415C5.0517 11.2538 5.61219 10.1852 6.46799 9.38113C7.32379 8.57702 8.42517 8.08411 9.595 7.98167L12.1133 7.76334ZM23.3333 15C23.3333 14.337 23.5967 13.7011 24.0656 13.2322C24.5344 12.7634 25.1703 12.5 25.8333 12.5C26.4964 12.5 27.1323 12.7634 27.6011 13.2322C28.0699 13.7011 28.3333 14.337 28.3333 15C28.3333 15.663 28.0699 16.2989 27.6011 16.7678C27.1323 17.2366 26.4964 17.5 25.8333 17.5C25.1703 17.5 24.5344 17.2366 24.0656 16.7678C23.5967 16.2989 23.3333 15.663 23.3333 15Z" fill="black"/>
<path d="M4.93499 26.8333C4.88997 26.8788 4.85604 26.934 4.8358 26.9947C4.81557 27.0554 4.80959 27.12 4.81832 27.1833L4.87665 27.5833C5.05169 28.7445 5.61218 29.8131 6.46798 30.6172C7.32378 31.4213 8.42516 31.9142 9.59499 32.0167L12.1117 32.235C17.3617 32.6917 22.6383 32.6917 27.8883 32.235L30.405 32.0167C31.0954 31.9583 31.7671 31.7616 32.38 31.4383C32.6083 31.32 32.6467 31.0183 32.4733 30.8283L25.64 23.3117C25.5857 23.2513 25.515 23.2081 25.4366 23.1874C25.3581 23.1667 25.2753 23.1693 25.1983 23.195L21.2283 24.5183C20.9962 24.5958 20.7465 24.6035 20.5101 24.5404C20.2736 24.4773 20.0609 24.3462 19.8983 24.1633L14.4067 17.985C14.3688 17.9425 14.3228 17.9083 14.2712 17.8843C14.2197 17.8603 14.1637 17.8471 14.1069 17.8456C14.0501 17.844 13.9935 17.8541 13.9408 17.8752C13.888 17.8963 13.8401 17.928 13.8 17.9683L4.93499 26.8333Z" fill="black"/>
</svg>
